<?xml version="1.0" encoding="UTF-8" standalone="no"?>
<!-- Created with Inkscape (http://www.inkscape.org/) -->

<svg
   xmlns:dc="http://purl.org/dc/elements/1.1/"
   xmlns:cc="http://creativecommons.org/ns#"
   xmlns:rdf="http://www.w3.org/1999/02/22-rdf-syntax-ns#"
   xmlns:svg="http://www.w3.org/2000/svg"
   xmlns="http://www.w3.org/2000/svg"
   xmlns:sodipodi="http://sodipodi.sourceforge.net/DTD/sodipodi-0.dtd"
   xmlns:inkscape="http://www.inkscape.org/namespaces/inkscape"
   width="210mm"
   height="297mm"
   viewBox="0 0 744.09448819 1052.3622047"
   id="svg2"
   version="1.1"
   inkscape:version="0.91 r13725"
   sodipodi:docname="favicon.svg">
  <defs
     id="defs4" />
  <sodipodi:namedview
     id="base"
     pagecolor="#ffffff"
     bordercolor="#666666"
     borderopacity="1.0"
     inkscape:pageopacity="0.0"
     inkscape:pageshadow="2"
     inkscape:zoom="9.5088437"
     inkscape:cx="497.59134"
     inkscape:cy="939.28508"
     inkscape:document-units="px"
     inkscape:current-layer="text3336"
     showgrid="false"
     inkscape:window-width="1395"
     inkscape:window-height="855"
     inkscape:window-x="45"
     inkscape:window-y="0"
     inkscape:window-maximized="1" />
  <metadata
     id="metadata7">
    <rdf:RDF>
      <cc:Work
         rdf:about="">
        <dc:format>image/svg+xml</dc:format>
        <dc:type
           rdf:resource="http://purl.org/dc/dcmitype/StillImage" />
        <dc:title></dc:title>
      </cc:Work>
    </rdf:RDF>
  </metadata>
  <g
     inkscape:label="Layer 1"
     inkscape:groupmode="layer"
     id="layer1">
    <g
       transform="scale(0.96689119,1.0342425)"
       style="font-style:normal;font-variant:normal;font-weight:normal;font-stretch:normal;font-size:41.36516953px;line-height:125%;font-family:Arizonia;-inkscape-font-specification:Arizonia;letter-spacing:0px;word-spacing:0px;fill:#004400;fill-opacity:1;stroke:#000000;stroke-width:0.31023878;stroke-linecap:butt;stroke-linejoin:miter;stroke-miterlimit:4;stroke-dasharray:none;stroke-opacity:1"
       id="text3336"
       inkscape:export-xdpi="90"
       inkscape:export-ydpi="90">
      <path
         d="m 533.32724,87.826652 q 0.41365,0 0.41365,0.206826 0,0.289556 -0.45502,0.910034 -4.38471,5.749758 -9.47262,13.981428 -5.04655,8.23167 -6.99072,12.8232 -0.33092,0.70321 -0.53774,0.33092 -0.0414,-0.12409 -0.0414,-0.45501 0,-1.69598 4.46744,-9.2658 4.5088,-7.56983 8.14894,-13.03003 3.6815,-5.460202 4.13651,-5.460202 l 0.33093,-0.04137 z m -16.54607,3.846961 q 0.37228,0 0.37228,0.206826 0,0.289556 -0.45501,0.910034 -3.35058,4.467438 -7.15618,10.299927 1.94417,0.1241 3.84696,0.49638 6.20478,1.28232 6.20478,3.97106 0,0.16546 -0.0827,0.16546 -0.0827,0 -0.16546,-0.20683 -0.41365,-1.03413 -4.55017,-1.40641 -1.24095,-0.1241 -3.01966,-0.1241 -1.7787,0 -4.26061,0.24819 -6.12204,9.72082 -8.14894,14.51918 -0.20682,0.45501 -0.41365,0.45501 -0.16546,0 -0.16546,-0.41365 0,-2.06826 7.56983,-14.47781 -2.39918,0.33092 -3.51604,0.53775 -7.28027,1.28232 -9.59672,3.97106 -0.70321,0.86867 -0.70321,1.61324 0,0.74457 0.8273,1.40641 0.24819,0.16546 -0.0827,0.16546 l -0.37228,-0.12409 q -1.77871,-1.36505 -1.77871,-3.18512 0,-1.7787 1.69598,-3.47467 2.48191,-2.48191 8.47985,-3.55741 3.59877,-0.62048 6.74253,-0.62048 0.16546,0 0.37228,0 7.28027,-11.334052 7.98348,-11.334052 l 0.37229,-0.04136 z"
         style="stroke-width:0.31023878"
         id="path4141"
         inkscape:connector-curvature="0" />
    </g>
  </g>
</svg>
