<?xml version="1.0" encoding="UTF-8" standalone="no"?>
<!-- Created with Inkscape (http://www.inkscape.org/) -->

<svg
   xmlns:dc="http://purl.org/dc/elements/1.1/"
   xmlns:cc="http://creativecommons.org/ns#"
   xmlns:rdf="http://www.w3.org/1999/02/22-rdf-syntax-ns#"
   xmlns:svg="http://www.w3.org/2000/svg"
   xmlns="http://www.w3.org/2000/svg"
   xmlns:sodipodi="http://sodipodi.sourceforge.net/DTD/sodipodi-0.dtd"
   xmlns:inkscape="http://www.inkscape.org/namespaces/inkscape"
   width="210mm"
   height="297mm"
   viewBox="0 0 744.09448819 1052.3622047"
   id="svg2"
   version="1.1"
   inkscape:version="0.91 r13725"
   sodipodi:docname="logo.svg">
  <defs
     id="defs4" />
  <sodipodi:namedview
     id="base"
     pagecolor="#ffffff"
     bordercolor="#666666"
     borderopacity="1.0"
     inkscape:pageopacity="0.0"
     inkscape:pageshadow="2"
     inkscape:zoom="9.5088437"
     inkscape:cx="497.10782"
     inkscape:cy="939.28508"
     inkscape:document-units="px"
     inkscape:current-layer="layer1"
     showgrid="false"
     inkscape:window-width="1395"
     inkscape:window-height="855"
     inkscape:window-x="45"
     inkscape:window-y="0"
     inkscape:window-maximized="1" />
  <metadata
     id="metadata7">
    <rdf:RDF>
      <cc:Work
         rdf:about="">
        <dc:format>image/svg+xml</dc:format>
        <dc:type
           rdf:resource="http://purl.org/dc/dcmitype/StillImage" />
        <dc:title></dc:title>
      </cc:Work>
    </rdf:RDF>
  </metadata>
  <g
     inkscape:label="Layer 1"
     inkscape:groupmode="layer"
     id="layer1">
    <g
       transform="scale(0.96689119,1.0342425)"
       style="font-style:normal;font-variant:normal;font-weight:normal;font-stretch:normal;font-size:41.36516953px;line-height:125%;font-family:Arizonia;-inkscape-font-specification:Arizonia;letter-spacing:0px;word-spacing:0px;fill:#004400;fill-opacity:1;stroke:#000000;stroke-width:0.31023878;stroke-linecap:butt;stroke-linejoin:miter;stroke-miterlimit:4;stroke-dasharray:none;stroke-opacity:1"
       id="text3336">
      <path
         d="m 510.16,89.046852 q 0.41365,0 0.41365,0.206826 0,0.289556 -0.45502,0.910034 -4.38471,5.749758 -9.47262,13.981428 -5.04655,8.23167 -6.99072,12.8232 -0.33092,0.70321 -0.53774,0.33092 -0.0414,-0.12409 -0.0414,-0.45501 0,-1.69598 4.46744,-9.2658 4.5088,-7.56983 8.14894,-13.03003 3.6815,-5.460202 4.13651,-5.460202 l 0.33093,-0.04137 z m -16.54607,3.846961 q 0.37228,0 0.37228,0.206826 0,0.289556 -0.45501,0.910034 -3.35058,4.467438 -7.15618,10.299927 1.94417,0.1241 3.84696,0.49638 6.20478,1.28232 6.20478,3.97106 0,0.16546 -0.0827,0.16546 -0.0827,0 -0.16546,-0.20683 -0.41365,-1.03413 -4.55017,-1.40641 -1.24095,-0.1241 -3.01966,-0.1241 -1.7787,0 -4.26061,0.24819 -6.12204,9.72082 -8.14894,14.51918 -0.20682,0.45501 -0.41365,0.45501 -0.16546,0 -0.16546,-0.41365 0,-2.06826 7.56983,-14.47781 -2.39918,0.33092 -3.51604,0.53775 -7.28027,1.28232 -9.59672,3.97106 -0.70321,0.86867 -0.70321,1.61324 0,0.74457 0.8273,1.40641 0.24819,0.16546 -0.0827,0.16546 l -0.37228,-0.12409 q -1.77871,-1.36505 -1.77871,-3.18512 0,-1.7787 1.69598,-3.47467 2.48191,-2.48191 8.47985,-3.55741 3.59877,-0.62048 6.74253,-0.62048 0.16546,0 0.37228,0 7.28027,-11.334052 7.98348,-11.334052 l 0.37229,-0.04136 z"
         style="stroke-width:0.31023878"
         id="path4141" />
      <path
         d="m 507.7815,106.91661 q 0.49638,-0.53775 0.49638,-0.91004 0,-0.37228 -0.49638,-0.37228 -0.49638,0 -1.53051,0.74457 -0.99277,0.74457 -3.01966,2.64737 -2.02689,1.9028 -2.44055,2.23372 -0.37228,0.28955 -0.37228,0 -0.0414,-0.28956 0.49638,-0.70321 0.53775,-0.45502 2.39918,-2.35781 1.86143,-1.9028 2.89556,-2.68874 1.03413,-0.78594 2.35782,-0.78594 1.48914,0 2.02689,1.11686 0.24819,0.41365 0.24819,1.0755 0,0.66184 -0.33092,1.48914 -0.33092,0.78594 -0.78594,1.44778 -0.41365,0.62048 -1.11686,1.53051 -0.66184,0.91004 -1.32368,1.82007 -0.62048,0.91004 -0.62048,1.32369 0,0.41365 0.33092,0.41365 1.61324,0 6.03931,-5.37747 2.10963,-2.52328 3.59877,-4.71563 1.32369,-3.06103 2.31645,-3.35058 0.37229,-0.1241 0.91004,-0.1241 0.53774,0 0.78594,0.45502 0.24819,0.45502 0.24819,0.70321 0,0.24819 -0.37229,0.41365 -0.33092,0.12409 -0.62048,0.12409 -0.24819,-0.0414 -0.33092,-0.0414 -1.19959,0 -2.02689,1.73734 -0.49638,1.07549 -1.28232,3.43331 -0.74458,2.35781 -1.40642,4.34334 -0.66184,1.98553 -2.19235,4.6329 -1.53051,2.64737 -3.72287,4.96382 -2.19235,2.31645 -5.21201,3.88832 -2.97829,1.57188 -6.12204,1.57188 -3.14376,0 -5.25338,-1.44778 -2.15099,-1.44778 -2.64737,-4.46744 0,-0.20682 0.0827,-0.28956 0.0827,-0.0827 0.20683,0 0.12409,0.0827 0.12409,0.2482 0.41365,2.31645 2.23372,3.76423 1.7787,1.44778 4.13652,1.44778 3.10238,0 6.32887,-2.39918 3.26785,-2.35782 6.08068,-6.24614 2.85419,-3.84696 6.70116,-11.29269 -0.9514,1.44778 -2.27509,3.14375 -5.17065,6.37023 -7.94211,6.37023 -2.10963,0 -2.10963,-1.98552 0,-0.70321 0.28956,-1.65461 0.57911,-1.65461 4.21925,-5.87385 z"
         style="stroke-width:0.31023878"
         id="path4143" />
      <path
         d="m 520.85354,114.48643 q 0,1.11686 1.11686,1.11686 0.66184,0 2.06826,-0.53775 1.44778,-0.53774 3.72286,-2.35781 2.27509,-1.82007 3.06102,-2.60601 0.78594,-0.8273 0.9514,-0.78593 0.16546,0 0.1241,0.24819 -0.0414,0.20682 -0.20683,0.37228 -3.51604,3.59877 -5.83249,5.17065 -2.31645,1.57188 -4.30197,1.57188 -1.69598,0 -2.35782,-0.78594 -0.66184,-0.78594 -0.66184,-1.82007 0,-1.86143 1.32368,-4.46744 -2.39918,2.56464 -2.39918,1.65461 0,-0.16546 0.2482,-0.37229 1.94416,-1.57187 4.17788,-4.55017 4.09515,-5.3361 6.4116,-9.38989 0.41365,-0.785938 0.41365,-1.158225 0,-0.868669 -0.9514,-0.330921 -1.07549,0.537747 -1.15822,0.413651 -0.0827,-0.124095 0.12409,-0.330921 0.99277,-0.744573 2.7301,-1.406416 1.73734,-0.661843 2.8542,-0.703208 1.73734,0 1.73734,1.075495 0,0.620477 -0.62048,1.654607 -0.57911,1.034129 -3.43331,4.136518 -2.81283,3.06102 -3.43331,3.84696 -4.26061,5.5843 -5.41884,8.89351 -0.28955,0.86867 -0.28955,1.44778 z"
         style="stroke-width:0.31023878"
         id="path4145" />
      <path
         d="m 545.13166,109.81217 q -0.45502,0.53774 -0.9514,1.15822 -0.45501,0.62048 -1.19959,1.69597 -0.70321,1.0755 -0.70321,1.82007 0,0.74457 0.62048,0.74457 0.66184,0 2.10963,-0.78593 2.89556,-1.65461 6.4116,-4.96382 0.41365,-0.41366 0.53774,-0.1241 0,0.0414 0,0.16546 0,0.1241 -0.16546,0.28956 -7.11481,6.70115 -10.34129,6.70115 -0.9514,0 -1.61324,-0.62047 -0.62048,-0.66185 -0.62048,-1.53051 0,-0.86867 0.74458,-2.64737 -1.86144,2.31644 -4.01243,3.59877 -2.10962,1.24095 -3.30921,1.24095 -1.19959,0 -2.06826,-0.70321 -0.8273,-0.74457 -0.8273,-1.82007 0,-3.06102 2.7301,-5.99794 2.06826,-2.19236 5.12928,-3.10239 1.36505,-0.45502 2.64737,-0.45502 1.32369,0 2.52328,0.74457 1.24095,0.70321 1.57187,1.69598 1.24096,0 1.77871,0.91003 0.0827,0.12409 0.0827,0.41365 0,0.28956 -0.33093,0.66184 -0.28955,0.37229 -0.74457,0.91004 z m -3.01966,-4.09515 q -0.86866,0 -2.06825,0.53774 -2.10963,0.91004 -4.01243,3.14376 -3.01965,3.5574 -3.01965,5.21201 0,0.86867 0.7032,0.86867 0.57912,0 1.9028,-0.74458 1.36505,-0.74457 3.55741,-2.93692 0.12409,-0.1241 0.9514,-0.91004 0.8273,-0.78594 1.40641,-1.36505 1.94416,-2.02689 1.94416,-2.89556 0,-0.91003 -1.36505,-0.91003 z"
         style="stroke-width:0.31023878"
         id="path4147" />
      <path
         d="m 547.50693,113.90732 q -0.0414,-0.0414 -0.0414,-0.1241 0,-0.0827 0.16546,-0.0827 0.12409,0 0.16546,0.16546 0.74457,1.65461 2.44054,1.65461 2.10963,0 3.6815,-2.06826 1.15823,-1.53051 2.0269,-3.18512 0.91003,-1.69597 1.48914,-2.68873 0.62048,-0.99277 1.86143,-2.23372 1.28233,-1.24096 2.31645,-1.53051 -0.24819,-0.1241 -0.8273,-0.1241 -0.57911,0 -2.19235,0.86867 -1.57188,0.8273 -3.14376,2.15099 -1.57187,1.28232 -3.39194,2.93693 -1.82007,1.6546 -2.19235,1.94416 -0.37229,0.28956 -0.45502,0 -0.0827,-0.28956 0.20683,-0.53775 1.07549,-0.91003 3.10238,-2.81283 2.0269,-1.94416 3.06103,-2.81283 1.07549,-0.91003 2.39918,-1.53051 1.32368,-0.66184 1.98552,-0.66184 1.65461,0 2.0269,0.57911 -1.0755,0.45501 -1.77871,2.39918 -0.66184,1.94416 -1.53051,4.5088 -0.8273,2.56464 -2.10962,4.01242 1.07549,-0.41365 3.30921,-1.9028 2.27509,-1.53051 4.01242,-3.30921 0.37229,-0.33092 0.53775,-0.0827 0,0.0827 0,0.20683 0,0.0827 -0.78594,0.86867 -0.78593,0.78593 -1.94416,1.7787 -1.11686,0.9514 -2.81283,2.15099 -3.51604,2.48191 -7.07345,2.48191 -3.51603,0 -4.5088,-3.01966 z"
         style="stroke-width:0.31023878"
         id="path4149" />
    </g>
  </g>
</svg>
